HIERARCHY
ROOT hip
{
	OFFSET 0.000000 0.000000 0.000000
	CHANNELS 6 Xposition Yposition Zposition Xrotation Zrotation Yrotation 
	JOINT abdomen
	{
		OFFSET 0.000000 3.422050 0.000000
		CHANNELS 3 Xrotation Zrotation Yrotation 
		JOINT chest
		{
			OFFSET 0.000000 8.486693 -0.684411
			CHANNELS 3 Xrotation Zrotation Yrotation 
			JOINT neck
			{
				OFFSET 0.000000 10.266162 -0.273764
				CHANNELS 3 Xrotation Zrotation Yrotation 
				JOINT head
				{
					OFFSET 0.000000 3.148285 0.000000
					CHANNELS 3 Xrotation Zrotation Yrotation 
					End Site
					{
						OFFSET 0.000000 3.148289 0.000000
					}
				}
			}
			JOINT lCollar
			{
				OFFSET 3.422053 6.707223 -0.821293
				CHANNELS 3 Yrotation Zrotation Xrotation 
				JOINT lShldr
				{
					OFFSET 3.285171 0.000000 0.000000
					CHANNELS 3 Zrotation Yrotation Xrotation 
					JOINT lForeArm
					{
						OFFSET 10.129278 0.000000 0.000000
						CHANNELS 3 Yrotation Zrotation Xrotation 
						JOINT lHand
						{
							OFFSET 8.486692 0.000000 0.000000
							CHANNELS 3 Zrotation Yrotation Xrotation 
							End Site
							{
								OFFSET 4.106464 0.000000 0.000000
							}
						}
					}
				}
			}
			JOINT rCollar
			{
				OFFSET -3.558935 6.707223 -0.821293
				CHANNELS 3 Yrotation Zrotation Xrotation 
				JOINT rShldr
				{
					OFFSET -3.148289 0.000000 0.000000
					CHANNELS 3 Zrotation Yrotation Xrotation 
					JOINT rForeArm
					{
						OFFSET -10.266159 0.000000 0.000000
						CHANNELS 3 Yrotation Zrotation Xrotation 
						JOINT rHand
						{
							OFFSET -8.349810 0.000000 0.000000
							CHANNELS 3 Zrotation Yrotation Xrotation 
							End Site
							{
								OFFSET -4.106464 0.000000 0.000000
							}
						}
					}
				}
			}
		}
	}
	JOINT lThigh
	{
		OFFSET 5.338403 -1.642589 1.368821
		CHANNELS 3 Xrotation Zrotation Yrotation 
		JOINT lShin
		{
			OFFSET -2.053232 -20.121670 0.000000
			CHANNELS 3 Xrotation Zrotation Yrotation 
			JOINT lFoot
			{
				OFFSET 0.000000 -19.300380 -1.231939
				CHANNELS 3 Xrotation Yrotation Zrotation 
				End Site
				{
					OFFSET 0.000000 -2.463878 4.653993
				}
			}
		}
	}
	JOINT rThigh
	{
		OFFSET -5.338403 -1.642589 1.368821
		CHANNELS 3 Xrotation Zrotation Yrotation 
		JOINT rShin
		{
			OFFSET 2.053232 -20.121670 0.000000
			CHANNELS 3 Xrotation Zrotation Yrotation 
			JOINT rFoot
			{
				OFFSET 0.000000 -19.300380 -1.231939
				CHANNELS 3 Xrotation Yrotation Zrotation 
				End Site
				{
					OFFSET 0.000000 -2.463878 4.653993
				}
			}
		}
	}
}
MOTION
Frames: 15
Frame Time: 0.033264
0.000000 43.528500 0.000000 0.000000 0.000000 0.000000 0.000000 0.000000 0.000000 0.000000 0.000000 0.000000 0.000000 0.000000 0.000000 0.000000 0.000000 0.000000 0.000000 0.000000 0.000000 0.000000 0.000000 0.000000 0.000000 0.000000 0.000000 0.000000 0.000000 0.000000 0.000000 0.000000 0.000000 0.000000 0.000000 0.000000 0.000000 0.000000 0.000000 0.000000 0.000000 0.000000 0.000000 0.000000 0.000000 0.000000 0.000000 0.000000 0.000000 0.000000 0.000000 0.000000 0.000000 0.000000 0.000000 0.000000 0.000000 0.000000 0.000000 0.000000 
0.000000 40.593857 28.850922 104.995956 0.000001 -0.000001 -30.151543 -1.035514 -0.986941 23.766813 -1.261114 -2.100667 0.215069 0.000000 0.000000 0.274519 0.000000 0.000000 -43.680210 10.363731 8.994149 -3.881228 -23.353943 -28.848984 -26.983440 14.143102 4.099685 43.870865 -5.463761 -9.930342 42.567684 -10.044298 8.834774 3.996702 24.797823 -28.658535 28.610447 -14.429963 4.448669 -43.965836 4.046718 -8.586881 -103.965828 7.048558 0.111532 1.450972 -5.687535 0.290344 38.583607 4.452552 3.542268 -103.298973 -6.723698 1.627644 -0.349224 4.803404 -0.439923 39.675602 -5.507193 -2.022550 
0.000000 40.593857 28.730103 104.995956 0.000001 -0.000001 -28.771790 -1.035601 -0.986975 20.809282 -1.261104 -2.100664 0.214064 0.000000 0.000000 0.273236 0.000000 0.000000 -43.799149 9.329505 9.518767 -3.881228 -23.353943 -28.848984 -26.983442 14.143102 4.099685 43.347309 -5.659460 -9.597631 42.758804 -9.054270 9.368278 3.996702 24.797823 -28.658535 28.610447 -14.429965 4.448669 -43.419773 4.354741 -8.321812 -104.121490 7.003063 -0.091808 1.450972 -5.687535 0.290344 38.823589 4.577748 3.375075 -103.298973 -6.723698 1.627644 -0.349224 4.803404 -0.439923 39.675602 -5.507193 -2.022550 
0.000000 40.593857 28.609285 104.995956 0.000001 -0.000001 -27.388805 -1.035686 -0.987012 17.818184 -1.261095 -2.100662 0.213059 0.000000 0.000000 0.271954 0.000000 0.000000 -43.908360 8.292548 10.040606 -3.881228 -23.353943 -28.848984 -26.983440 14.143102 4.099685 42.822174 -5.852209 -9.262863 42.940384 -8.060992 9.897878 3.996702 24.797825 -28.658535 28.610447 -14.429963 4.448669 -42.871758 4.660391 -8.053553 -104.276970 6.957015 -0.295016 1.450972 -5.687535 0.290344 39.064014 4.702259 3.207308 -103.298973 -6.723698 1.627644 -0.349224 4.803404 -0.439923 39.675602 -5.507193 -2.022550 
0.000000 40.593857 28.488466 104.995956 0.000001 -0.000001 -26.002962 -1.035771 -0.987050 14.797071 -1.261085 -2.100660 0.212054 0.000000 0.000000 0.270671 0.000000 0.000000 -44.007900 7.253159 10.559904 -3.881228 -23.353945 -28.848984 -26.983442 14.143102 4.099685 42.295521 -6.041973 -8.926076 43.112518 -7.064744 10.423798 3.996702 24.797825 -28.658539 28.610449 -14.429967 4.448669 -42.321804 4.963611 -7.782124 -104.432320 6.910419 -0.498093 1.450972 -5.687535 0.290344 39.304859 4.826078 3.038969 -103.298973 -6.723698 1.627644 -0.349224 4.803404 -0.439923 39.675606 -5.507194 -2.022550 
0.000000 40.593857 28.367647 104.995956 0.000001 -0.000001 -24.614676 -1.035855 -0.987091 11.749749 -1.261075 -2.100658 0.211049 0.000000 0.000000 0.269388 0.000000 0.000000 -44.097858 6.211632 11.076912 -3.881228 -23.353943 -28.848984 -26.983440 14.143100 4.099684 41.767376 -6.228713 -8.587308 43.275295 -6.065807 10.946262 3.996702 24.797823 -28.658535 28.610447 -14.429963 4.448669 -41.769932 5.264335 -7.507544 -104.587456 6.863274 -0.701032 1.450972 -5.687534 0.290344 39.546154 4.949203 2.870066 -103.298958 -6.723697 1.627645 -0.349224 4.803404 -0.439923 39.675602 -5.507193 -2.022550 
0.000000 40.593857 28.246830 104.995956 0.000001 -0.000001 -23.224331 -1.035938 -0.987134 8.680238 -1.261065 -2.100657 0.210044 0.000000 0.000000 0.268105 0.000000 0.000000 -44.178288 5.168269 11.591868 -3.881228 -23.353941 -28.848984 -26.983440 14.143102 4.099685 41.237789 -6.412391 -8.246600 43.428780 -5.064466 11.465494 3.996702 24.797819 -28.658535 28.610447 -14.429963 4.448669 -41.216160 5.562508 -7.229836 -104.742424 6.815580 -0.903831 1.450972 -5.687535 0.290344 39.787857 5.071625 2.700598 -103.298973 -6.723697 1.627644 -0.349224 4.803404 -0.439923 39.675598 -5.507192 -2.022550 
0.000000 40.593857 28.126011 104.995956 0.000001 -0.000001 -21.832348 -1.036021 -0.987179 5.592745 -1.261054 -2.100657 0.209039 0.000000 0.000000 0.266822 0.000000 0.000000 -44.249252 4.123365 12.105019 -3.881228 -23.353943 -28.848984 -26.983440 14.143102 4.099685 40.706787 -6.592970 -7.903992 43.573055 -4.060999 11.981712 3.996702 24.797823 -28.658535 28.610447 -14.429963 4.448669 -40.660496 5.858070 -6.949023 -104.897217 6.767342 -1.106486 1.450972 -5.687535 0.290344 40.029995 5.193339 2.530571 -103.298973 -6.723698 1.627644 -0.349224 4.803404 -0.439923 39.675602 -5.507193 -2.022550 
0.000000 40.593857 28.005192 104.995956 0.000001 -0.000001 -20.439127 -1.036102 -0.987226 2.491625 -1.261044 -2.100657 0.208034 0.000000 0.000000 0.265540 0.000000 0.000000 -44.310795 3.077226 12.616602 -3.881229 -23.353945 -28.848984 -26.983440 14.143102 4.099685 40.174412 -6.770411 -7.559525 43.708210 -3.055692 12.495140 3.996702 24.797823 -28.658535 28.610447 -14.429963 4.448669 -40.102974 6.150964 -6.665132 -105.051826 6.718560 -1.308995 1.450972 -5.687535 0.290344 40.272545 5.314343 2.359990 -103.298973 -6.723698 1.627644 -0.349224 4.803404 -0.439923 39.675602 -5.507193 -2.022550 
0.000000 40.593857 27.884375 104.995956 0.000001 -0.000001 -19.045078 -1.036182 -0.987275 -0.618646 -1.261034 -2.100658 0.207029 0.000000 0.000000 0.264257 0.000000 0.000000 -44.362965 2.030147 13.126854 -3.881228 -23.353947 -28.848984 -26.983440 14.143102 4.099685 39.640732 -6.944687 -7.213247 43.834274 -2.048827 13.005988 3.996703 24.797825 -28.658539 28.610451 -14.429965 4.448669 -39.543613 6.441131 -6.378188 -105.206245 6.669234 -1.511353 1.450972 -5.687535 0.290344 40.515511 5.434628 2.188855 -103.298973 -6.723698 1.627644 -0.349224 4.803404 -0.439923 39.675602 -5.507193 -2.022550 
0.000000 40.593857 27.763556 104.995956 0.000001 -0.000001 -17.650620 -1.036260 -0.987326 -3.733515 -1.261023 -2.100660 0.206024 0.000000 0.000000 0.262974 0.000000 0.000000 -44.405777 0.982428 13.636010 -3.881228 -23.353943 -28.848984 -26.983440 14.143102 4.099685 39.105759 -7.115757 -6.865196 43.951309 -1.040683 13.514477 3.996702 24.797825 -28.658539 28.610449 -14.429965 4.448669 -38.982430 6.728516 -6.088219 -105.360474 6.619364 -1.713559 1.450972 -5.687535 0.290344 40.758892 5.554192 2.017173 -103.298973 -6.723698 1.627645 -0.349224 4.803404 -0.439923 39.675606 -5.507193 -2.022550 
0.000000 40.593857 27.642736 104.995949 0.000001 -0.000001 -16.256161 -1.036338 -0.987379 -6.848387 -1.261013 -2.100662 0.205019 0.000000 0.000000 0.261691 0.000000 0.000000 -44.439289 -0.065630 14.144314 -3.881227 -23.353941 -28.848982 -26.983440 14.143102 4.099685 38.569534 -7.283588 -6.515419 44.059387 -0.031541 14.020823 3.996702 24.797823 -28.658535 28.610447 -14.429963 4.448669 -38.419445 7.013059 -5.795251 -105.514511 6.568957 -1.915609 1.450972 -5.687534 0.290344 41.002686 5.673028 1.844947 -103.298973 -6.723698 1.627644 -0.349224 4.803403 -0.439923 39.675602 -5.507193 -2.022550 
0.000000 40.593857 27.521919 104.995956 0.000001 -0.000001 -14.862116 -1.036414 -0.987434 -9.958656 -1.261003 -2.100665 0.204014 0.000000 0.000000 0.260408 0.000000 0.000000 -44.463490 -1.113726 14.651989 -3.881227 -23.353941 -28.848982 -26.983440 14.143102 4.099685 38.032135 -7.448155 -6.163966 44.158531 0.978316 14.525237 3.996702 24.797823 -28.658535 28.610445 -14.429963 4.448668 -37.854698 7.294707 -5.499319 -105.668358 6.518011 -2.117498 1.450972 -5.687535 0.290344 41.246876 5.791130 1.672181 -103.298973 -6.723697 1.627644 -0.349224 4.803404 -0.439923 39.675598 -5.507193 -2.022550 
0.000000 40.593857 27.401100 104.995956 0.000001 -0.000001 -13.468897 -1.036489 -0.987490 -13.059779 -1.260993 -2.100668 0.203009 0.000000 0.000000 0.259126 0.000000 0.000000 -44.478413 -2.161563 15.159281 -3.881228 -23.353943 -28.848984 -26.983440 14.143102 4.099685 37.493591 -7.609422 -5.810880 44.248783 1.988609 15.027938 3.996702 24.797823 -28.658535 28.610447 -14.429963 4.448669 -37.288204 7.573408 -5.200453 -105.821999 6.466528 -2.319226 1.450972 -5.687535 0.290344 41.491470 5.908496 1.498880 -103.298973 -6.723698 1.627644 -0.349224 4.803404 -0.439923 39.675602 -5.507193 -2.022550 
0.000000 40.593857 27.280281 104.995956 0.000001 -0.000001 -12.076909 -1.036563 -0.987548 -16.147268 -1.260983 -2.100672 0.202004 0.000000 0.000000 0.257843 0.000000 0.000000 -44.484055 -3.208840 15.666422 -3.881228 -23.353943 -28.848984 -26.983440 14.143102 4.099685 36.953945 -7.767359 -5.456211 44.330189 2.999062 15.529137 3.996702 24.797823 -28.658535 28.610447 -14.429963 4.448669 -36.719997 7.849102 -4.898685 -105.975426 6.414508 -2.520787 1.450972 -5.687535 0.290344 41.736458 6.025117 1.325046 -103.298973 -6.723698 1.627644 -0.349224 4.803404 -0.439923 39.675602 -5.507193 -2.022550 
